<svg width="1209.962" height="138.281" viewBox="0 0 1209.962 138.281" xmlns="http://www.w3.org/2000/svg"><g id="svgGroup" stroke-linecap="round" fill-rule="evenodd" font-size="9pt" stroke="#000" stroke-width="0.25mm" fill="#000" style="stroke:#000;stroke-width:0.25mm;fill:#000"><path d="M 183.204 64.844 L 193.555 92.383 L 195.118 92.383 L 206.055 54.102 A 33.191 33.191 0 0 1 208.057 48.828 A 19.989 19.989 0 0 1 210.872 44.476 A 18.756 18.756 0 0 1 211.036 44.287 Q 212.793 42.285 215.235 41.064 A 11.091 11.091 0 0 1 218.104 40.112 Q 219.384 39.865 220.845 39.845 A 18.842 18.842 0 0 1 221.094 39.844 Q 224.251 39.844 226.542 40.867 A 9.544 9.544 0 0 1 227.051 41.113 A 12.049 12.049 0 0 1 230.274 43.515 A 11.257 11.257 0 0 1 231.055 44.434 A 13.004 13.004 0 0 1 233.258 48.957 A 14.783 14.783 0 0 1 233.301 49.121 Q 233.985 51.758 233.985 54.492 Q 233.985 57.129 233.252 59.619 A 111.925 111.925 0 0 1 231.641 64.648 L 209.961 122.266 A 109.57 109.57 0 0 1 208.6 125.604 Q 207.304 128.632 206.173 130.643 A 28.004 28.004 0 0 1 205.909 131.104 A 25.927 25.927 0 0 1 204.728 132.944 Q 203.525 134.644 202.344 135.596 A 9.243 9.243 0 0 1 200.943 136.538 Q 199.886 137.109 198.829 137.256 A 26.028 26.028 0 0 1 196.082 137.485 A 30.105 30.105 0 0 1 195.118 137.5 Q 192.969 137.5 191.065 137.256 Q 189.187 137.015 187.308 135.634 A 11.918 11.918 0 0 1 187.256 135.596 A 11.051 11.051 0 0 1 185.836 134.316 Q 185.175 133.617 184.508 132.722 A 26.374 26.374 0 0 1 183.399 131.104 Q 181.635 128.325 179.711 123.355 A 94.145 94.145 0 0 1 179.297 122.266 L 169.141 87.109 L 167.579 87.109 L 157.032 122.266 A 99.315 99.315 0 0 1 155.722 125.604 Q 154.467 128.632 153.34 130.643 A 25.753 25.753 0 0 1 153.077 131.104 A 27.543 27.543 0 0 1 151.957 132.864 Q 150.736 134.622 149.561 135.596 A 8.747 8.747 0 0 1 148.164 136.553 Q 147.218 137.067 146.257 137.231 A 5.422 5.422 0 0 1 146.094 137.256 A 26.028 26.028 0 0 1 143.348 137.485 A 30.105 30.105 0 0 1 142.383 137.5 Q 140.235 137.5 138.33 137.256 Q 136.452 137.015 134.574 135.634 A 11.918 11.918 0 0 1 134.522 135.596 A 11.051 11.051 0 0 1 133.102 134.316 Q 132.441 133.617 131.774 132.722 A 26.374 26.374 0 0 1 130.664 131.104 Q 128.9 128.325 126.977 123.355 A 94.145 94.145 0 0 1 126.563 122.266 L 104.688 64.648 A 54.412 54.412 0 0 1 103.549 61.264 A 63.796 63.796 0 0 1 103.077 59.619 A 20.207 20.207 0 0 1 102.345 54.462 A 19.003 19.003 0 0 1 102.344 54.297 A 20.338 20.338 0 0 1 103.077 48.828 A 12.96 12.96 0 0 1 104.847 44.963 A 12.158 12.158 0 0 1 105.42 44.189 A 10.645 10.645 0 0 1 108.414 41.653 A 13.156 13.156 0 0 1 109.668 41.016 A 12.564 12.564 0 0 1 112.319 40.194 Q 114.075 39.844 116.211 39.844 A 10.529 10.529 0 0 1 119.41 40.318 A 9.418 9.418 0 0 1 121.143 41.064 A 14.783 14.783 0 0 1 124.96 44.132 A 16.68 16.68 0 0 1 125.098 44.287 A 21.063 21.063 0 0 1 127.924 48.435 A 23.556 23.556 0 0 1 128.125 48.828 Q 129.395 51.367 130.274 54.102 L 142.579 92.383 L 144.141 92.383 L 153.125 64.844 A 35.67 35.67 0 0 1 154.626 60.879 Q 156.624 56.473 159.39 54.324 A 10.744 10.744 0 0 1 159.62 54.15 A 15.383 15.383 0 0 1 164.38 51.742 A 13.971 13.971 0 0 1 168.36 51.172 A 12.868 12.868 0 0 1 176.709 54.15 A 13.956 13.956 0 0 1 179.103 56.722 Q 181.108 59.445 182.822 63.835 A 53.233 53.233 0 0 1 183.204 64.844 Z M 798.633 64.844 L 808.985 92.383 L 810.547 92.383 L 821.485 54.102 A 33.191 33.191 0 0 1 823.487 48.828 A 19.989 19.989 0 0 1 826.302 44.476 A 18.756 18.756 0 0 1 826.465 44.287 Q 828.223 42.285 830.664 41.064 A 11.091 11.091 0 0 1 833.534 40.112 Q 834.813 39.865 836.275 39.845 A 18.842 18.842 0 0 1 836.524 39.844 Q 839.681 39.844 841.971 40.867 A 9.544 9.544 0 0 1 842.481 41.113 A 12.049 12.049 0 0 1 845.704 43.515 A 11.257 11.257 0 0 1 846.485 44.434 A 13.004 13.004 0 0 1 848.687 48.957 A 14.783 14.783 0 0 1 848.731 49.121 Q 849.414 51.758 849.414 54.492 Q 849.414 57.129 848.682 59.619 A 111.925 111.925 0 0 1 847.071 64.648 L 825.391 122.266 A 109.57 109.57 0 0 1 824.03 125.604 Q 822.733 128.632 821.603 130.643 A 28.004 28.004 0 0 1 821.338 131.104 A 25.927 25.927 0 0 1 820.158 132.944 Q 818.955 134.644 817.774 135.596 A 9.243 9.243 0 0 1 816.373 136.538 Q 815.316 137.109 814.258 137.256 A 26.028 26.028 0 0 1 811.512 137.485 A 30.105 30.105 0 0 1 810.547 137.5 Q 808.399 137.5 806.495 137.256 Q 804.616 137.015 802.738 135.634 A 11.918 11.918 0 0 1 802.686 135.596 A 11.051 11.051 0 0 1 801.266 134.316 Q 800.605 133.617 799.938 132.722 A 26.374 26.374 0 0 1 798.829 131.104 Q 797.064 128.325 795.141 123.355 A 94.145 94.145 0 0 1 794.727 122.266 L 784.571 87.109 L 783.008 87.109 L 772.461 122.266 A 99.315 99.315 0 0 1 771.152 125.604 Q 769.896 128.632 768.77 130.643 A 25.753 25.753 0 0 1 768.506 131.104 A 27.543 27.543 0 0 1 767.387 132.864 Q 766.166 134.622 764.991 135.596 A 8.747 8.747 0 0 1 763.594 136.553 Q 762.648 137.067 761.687 137.231 A 5.422 5.422 0 0 1 761.524 137.256 A 26.028 26.028 0 0 1 758.777 137.485 A 30.105 30.105 0 0 1 757.813 137.5 Q 755.664 137.5 753.76 137.256 Q 751.882 137.015 750.004 135.634 A 11.918 11.918 0 0 1 749.952 135.596 A 11.051 11.051 0 0 1 748.532 134.316 Q 747.87 133.617 747.203 132.722 A 26.374 26.374 0 0 1 746.094 131.104 Q 744.33 128.325 742.406 123.355 A 94.145 94.145 0 0 1 741.993 122.266 L 720.118 64.648 A 54.412 54.412 0 0 1 718.978 61.264 A 63.796 63.796 0 0 1 718.506 59.619 A 20.207 20.207 0 0 1 717.775 54.462 A 19.003 19.003 0 0 1 717.774 54.297 A 20.338 20.338 0 0 1 718.506 48.828 A 12.96 12.96 0 0 1 720.277 44.963 A 12.158 12.158 0 0 1 720.85 44.189 A 10.645 10.645 0 0 1 723.844 41.653 A 13.156 13.156 0 0 1 725.098 41.016 A 12.564 12.564 0 0 1 727.748 40.194 Q 729.505 39.844 731.641 39.844 A 10.529 10.529 0 0 1 734.84 40.318 A 9.418 9.418 0 0 1 736.573 41.064 A 14.783 14.783 0 0 1 740.39 44.132 A 16.68 16.68 0 0 1 740.528 44.287 A 21.063 21.063 0 0 1 743.354 48.435 A 23.556 23.556 0 0 1 743.555 48.828 Q 744.825 51.367 745.704 54.102 L 758.008 92.383 L 759.571 92.383 L 768.555 64.844 A 35.67 35.67 0 0 1 770.056 60.879 Q 772.054 56.473 774.82 54.324 A 10.744 10.744 0 0 1 775.049 54.15 A 15.383 15.383 0 0 1 779.809 51.742 A 13.971 13.971 0 0 1 783.789 51.172 A 12.868 12.868 0 0 1 792.139 54.15 A 13.956 13.956 0 0 1 794.532 56.722 Q 796.538 59.445 798.252 63.835 A 53.233 53.233 0 0 1 798.633 64.844 Z M 547.852 0.781 L 586.133 0.781 Q 590.039 0.781 594.043 1.074 A 24.853 24.853 0 0 1 598.301 1.744 A 20.241 20.241 0 0 1 601.27 2.734 Q 604.493 4.102 606.543 6.885 A 9.504 9.504 0 0 1 607.963 9.799 Q 608.358 11.103 608.505 12.672 A 21.075 21.075 0 0 1 608.594 14.648 A 19.669 19.669 0 0 1 608.394 17.547 Q 607.953 20.499 606.543 22.412 A 12.484 12.484 0 0 1 601.27 26.562 A 21.072 21.072 0 0 1 596.704 27.894 A 26.181 26.181 0 0 1 594.043 28.223 Q 590.039 28.516 586.133 28.516 L 562.891 28.516 L 562.891 55.078 L 575.196 55.078 Q 579.102 55.078 583.057 55.322 Q 587.012 55.566 590.088 56.885 A 11.901 11.901 0 0 1 595.118 60.889 A 9.228 9.228 0 0 1 596.47 63.697 Q 596.845 64.952 596.986 66.46 A 20.442 20.442 0 0 1 597.071 68.359 A 19.652 19.652 0 0 1 596.88 71.192 Q 596.67 72.629 596.23 73.801 A 8.485 8.485 0 0 1 595.118 75.879 Q 593.164 78.516 590.088 79.834 A 18.99 18.99 0 0 1 586.125 81.021 A 24.695 24.695 0 0 1 583.057 81.396 A 127.572 127.572 0 0 1 575.196 81.641 L 562.891 81.641 L 562.891 109.766 L 586.133 109.766 Q 590.039 109.766 594.043 110.059 A 25.926 25.926 0 0 1 598.301 110.713 A 20.941 20.941 0 0 1 601.27 111.67 A 12.132 12.132 0 0 1 606.543 115.771 Q 608.594 118.555 608.594 123.438 A 19.962 19.962 0 0 1 608.389 126.392 Q 608.149 127.99 607.63 129.289 A 9.136 9.136 0 0 1 606.495 131.348 A 12.682 12.682 0 0 1 601.172 135.547 A 21.072 21.072 0 0 1 596.606 136.879 A 26.181 26.181 0 0 1 593.946 137.207 Q 589.942 137.5 586.133 137.5 L 547.852 137.5 A 24.668 24.668 0 0 1 544.677 137.309 Q 543.077 137.101 541.767 136.666 A 10.088 10.088 0 0 1 539.405 135.547 Q 536.426 133.594 535.059 130.42 A 19.591 19.591 0 0 1 533.789 126.128 A 24.779 24.779 0 0 1 533.448 123.242 Q 533.204 119.238 533.204 115.039 L 533.204 23.242 Q 533.204 19.043 533.448 15.039 A 23.7 23.7 0 0 1 534.051 10.908 A 18.931 18.931 0 0 1 535.059 7.861 A 11.441 11.441 0 0 1 539.405 2.734 A 10.4 10.4 0 0 1 542.174 1.488 Q 544.562 0.781 547.852 0.781 Z M 430.274 74.609 L 430.274 115.234 A 67.717 67.717 0 0 1 429.786 123.438 A 23.062 23.062 0 0 1 428.881 127.664 A 18.775 18.775 0 0 1 427.686 130.566 Q 426.075 133.691 423.096 135.596 A 10.917 10.917 0 0 1 420.092 136.896 Q 418.721 137.274 417.09 137.415 A 23.75 23.75 0 0 1 415.039 137.5 A 21.165 21.165 0 0 1 411.925 137.285 Q 409.075 136.86 407.129 135.596 Q 404.2 133.691 402.637 130.566 A 19.434 19.434 0 0 1 401.07 126.086 A 24.393 24.393 0 0 1 400.635 123.438 A 75.152 75.152 0 0 1 400.196 115.234 L 400.196 77.148 Q 400.196 74.414 399.952 71.777 A 17.359 17.359 0 0 0 399.557 69.336 A 12.967 12.967 0 0 0 398.829 67.139 Q 397.95 65.137 396.241 63.916 A 6.019 6.019 0 0 0 394.37 63.04 Q 393.556 62.808 392.586 62.732 A 12.613 12.613 0 0 0 391.602 62.695 Q 387.598 62.695 385.157 65.332 Q 382.715 67.969 381.299 72.559 A 40.303 40.303 0 0 0 380.238 76.883 Q 379.67 79.861 379.395 83.35 A 157.724 157.724 0 0 0 378.975 91.463 A 193.324 193.324 0 0 0 378.907 96.68 L 378.907 115.234 A 67.717 67.717 0 0 1 378.418 123.438 A 23.062 23.062 0 0 1 377.514 127.664 A 18.775 18.775 0 0 1 376.319 130.566 Q 374.707 133.691 371.729 135.596 A 10.917 10.917 0 0 1 368.725 136.896 Q 367.354 137.274 365.723 137.415 A 23.75 23.75 0 0 1 363.672 137.5 A 21.165 21.165 0 0 1 360.557 137.285 Q 357.708 136.86 355.762 135.596 Q 352.832 133.691 351.27 130.566 A 19.434 19.434 0 0 1 349.703 126.086 A 24.393 24.393 0 0 1 349.268 123.438 A 75.152 75.152 0 0 1 348.829 115.234 L 348.829 61.914 A 111.002 111.002 0 0 1 349.086 54.255 A 101.942 101.942 0 0 1 349.122 53.76 A 21.944 21.944 0 0 1 349.764 49.806 A 17.432 17.432 0 0 1 350.879 46.729 Q 352.344 43.652 355.323 41.748 A 10.597 10.597 0 0 1 358.107 40.524 Q 359.432 40.141 361.027 39.974 A 25.394 25.394 0 0 1 363.672 39.844 A 25.955 25.955 0 0 1 366.8 40.02 Q 368.395 40.214 369.712 40.622 A 10.829 10.829 0 0 1 372.071 41.65 A 14.898 14.898 0 0 1 374.558 43.488 A 11.273 11.273 0 0 1 376.612 45.996 A 14.185 14.185 0 0 1 378.516 51.367 A 49.338 49.338 0 0 1 378.754 53.381 Q 378.849 54.373 378.885 55.246 A 24.556 24.556 0 0 1 378.907 56.25 A 23.573 23.573 0 0 1 380.227 52.672 A 29.069 29.069 0 0 1 381.348 50.488 A 21.168 21.168 0 0 1 385.596 45.215 A 20.491 20.491 0 0 1 389.846 42.275 A 24.757 24.757 0 0 1 391.797 41.357 A 18.943 18.943 0 0 1 396.216 40.136 A 25.858 25.858 0 0 1 400.196 39.844 A 34.362 34.362 0 0 1 410.938 41.602 A 25.266 25.266 0 0 1 420.606 47.461 Q 424.903 51.563 427.588 58.203 A 33.772 33.772 0 0 1 429.424 64.612 Q 430.008 67.709 430.191 71.273 A 65.255 65.255 0 0 1 430.274 74.609 Z M 1174.414 39.063 L 1175.977 39.063 Q 1182.033 39.063 1186.687 39.864 A 38.409 38.409 0 0 1 1189.405 40.43 Q 1194.922 41.797 1198.584 43.994 A 24.436 24.436 0 0 1 1201.582 46.096 Q 1203.147 47.389 1204.274 48.832 A 15.235 15.235 0 0 1 1204.346 48.926 A 23.365 23.365 0 0 1 1206.345 51.974 A 18.635 18.635 0 0 1 1207.471 54.443 A 23.614 23.614 0 0 1 1208.377 57.497 A 18.826 18.826 0 0 1 1208.741 59.766 A 64.429 64.429 0 0 1 1208.889 61.56 Q 1208.937 62.262 1208.961 62.888 A 30.949 30.949 0 0 1 1208.985 64.063 Q 1208.985 66.992 1207.764 68.896 A 8.99 8.99 0 0 1 1204.541 71.924 A 13.447 13.447 0 0 1 1201.386 73.185 A 16.259 16.259 0 0 1 1200 73.486 Q 1197.461 73.926 1194.727 74.023 A 12.155 12.155 0 0 1 1192.229 73.776 A 10.013 10.013 0 0 1 1190.479 73.242 A 13.048 13.048 0 0 1 1188.457 72.208 A 10.689 10.689 0 0 1 1187.207 71.289 A 8.897 8.897 0 0 1 1185.694 69.635 A 7.804 7.804 0 0 1 1185.108 68.652 A 7.409 7.409 0 0 1 1184.582 67.301 A 5.582 5.582 0 0 1 1184.375 65.82 A 8.261 8.261 0 0 0 1183.847 63.237 A 6.666 6.666 0 0 0 1181.397 60.156 A 10.625 10.625 0 0 0 1177.007 58.396 A 14.323 14.323 0 0 0 1174.61 58.203 A 14.573 14.573 0 0 0 1171.865 58.456 A 13.298 13.298 0 0 0 1171.436 58.545 A 7.912 7.912 0 0 0 1168.702 59.717 Q 1167.481 60.547 1166.748 61.914 Q 1166.151 63.029 1166.041 64.663 A 11.395 11.395 0 0 0 1166.016 65.43 A 5.769 5.769 0 0 0 1167.132 68.834 A 7.19 7.19 0 0 0 1167.286 69.043 A 12.474 12.474 0 0 0 1168.733 70.617 Q 1169.495 71.321 1170.439 71.997 A 21.407 21.407 0 0 0 1170.752 72.217 A 38.6 38.6 0 0 0 1173.121 73.718 A 51.47 51.47 0 0 0 1175.83 75.195 A 206 206 0 0 0 1181.059 77.759 A 227.146 227.146 0 0 0 1181.836 78.125 Q 1186.622 80.469 1191.602 83.154 Q 1196.582 85.84 1200.684 89.453 A 30.621 30.621 0 0 1 1207.373 97.803 A 20.775 20.775 0 0 1 1209.597 104.391 A 27.844 27.844 0 0 1 1209.961 108.984 A 34.233 34.233 0 0 1 1209.586 114.177 A 25.247 25.247 0 0 1 1208.252 119.336 A 27.25 27.25 0 0 1 1205.602 124.591 A 23.444 23.444 0 0 1 1203.711 127.1 Q 1200.879 130.371 1197.12 132.52 Q 1193.36 134.668 1189.209 135.938 Q 1185.059 137.207 1180.762 137.744 A 70.417 70.417 0 0 1 1175.582 138.206 A 58.061 58.061 0 0 1 1172.657 138.281 A 75.354 75.354 0 0 1 1166.66 138.055 Q 1163.757 137.823 1161.221 137.352 A 41.468 41.468 0 0 1 1159.571 137.012 Q 1154.004 135.742 1150 133.643 A 29.687 29.687 0 0 1 1146.402 131.434 A 22.145 22.145 0 0 1 1143.409 128.857 Q 1140.821 126.172 1139.356 123.242 A 24.819 24.819 0 0 1 1137.812 119.418 A 21.191 21.191 0 0 1 1137.305 117.432 A 30.875 30.875 0 0 1 1136.866 114.661 A 23.337 23.337 0 0 1 1136.719 112.109 A 16.602 16.602 0 0 1 1137.007 108.906 Q 1137.37 107.064 1138.189 105.659 A 8.045 8.045 0 0 1 1139.991 103.516 Q 1142.349 101.545 1146.508 100.994 A 26.697 26.697 0 0 1 1150 100.781 Q 1154.883 100.781 1158.008 103.418 Q 1161.133 106.055 1161.329 111.914 Q 1161.426 113.867 1162.452 115.039 A 7.208 7.208 0 0 0 1164.183 116.47 A 8.961 8.961 0 0 0 1165.088 116.943 A 11.728 11.728 0 0 0 1167.668 117.762 A 13.945 13.945 0 0 0 1168.653 117.92 A 30.868 30.868 0 0 0 1172.229 118.163 A 28.345 28.345 0 0 0 1172.461 118.164 A 11.845 11.845 0 0 0 1175.17 117.871 A 8.311 8.311 0 0 0 1178.663 116.162 A 6.416 6.416 0 0 0 1181.037 111.482 A 8.279 8.279 0 0 0 1181.055 110.938 A 8.993 8.993 0 0 0 1179.494 105.885 A 10.843 10.843 0 0 0 1179.444 105.811 A 17.886 17.886 0 0 0 1177.029 102.953 A 22.494 22.494 0 0 0 1175.196 101.367 A 45.156 45.156 0 0 0 1171.71 98.922 A 56.338 56.338 0 0 0 1169.19 97.412 A 1073.589 1073.589 0 0 0 1162.305 93.555 A 222.517 222.517 0 0 1 1153.467 88.574 Q 1149.024 85.938 1145.411 82.715 Q 1141.797 79.492 1139.551 75.439 A 17.992 17.992 0 0 1 1137.413 68.422 A 22.285 22.285 0 0 1 1137.305 66.211 A 38.802 38.802 0 0 1 1137.655 60.848 Q 1138.057 57.976 1138.918 55.565 A 20.813 20.813 0 0 1 1139.795 53.467 Q 1142.286 48.34 1147.071 45.166 A 28.276 28.276 0 0 1 1153.072 42.184 A 38.62 38.62 0 0 1 1158.741 40.625 Q 1165.407 39.301 1173.858 39.076 A 126.05 126.05 0 0 1 1174.414 39.063 Z M 704.688 23.047 L 704.688 115.43 Q 704.688 119.531 704.395 123.486 A 22.087 22.087 0 0 1 703.702 127.646 A 17.932 17.932 0 0 1 702.637 130.566 Q 701.172 133.691 698.243 135.596 A 10.365 10.365 0 0 1 695.475 136.829 Q 694.179 137.206 692.621 137.372 A 24.522 24.522 0 0 1 690.039 137.5 A 25.955 25.955 0 0 1 686.911 137.324 Q 685.317 137.129 683.999 136.722 A 10.829 10.829 0 0 1 681.641 135.693 A 14.213 14.213 0 0 1 679.182 133.862 A 10.832 10.832 0 0 1 677.149 131.299 Q 675.684 128.711 675.342 125.879 A 57.721 57.721 0 0 1 675.134 123.878 Q 675.055 122.95 675.022 122.142 A 26.37 26.37 0 0 1 675 121.094 A 29.391 29.391 0 0 1 673.467 124.989 A 35.326 35.326 0 0 1 672.51 126.855 A 20.767 20.767 0 0 1 668.36 132.129 A 19.995 19.995 0 0 1 664.18 135.069 A 24.127 24.127 0 0 1 662.256 135.986 Q 658.692 137.5 653.907 137.5 A 34.362 34.362 0 0 1 643.164 135.742 A 25.266 25.266 0 0 1 633.497 129.883 Q 629.2 125.781 626.514 119.189 A 33.353 33.353 0 0 1 624.678 112.833 Q 624.094 109.763 623.912 106.234 A 63.99 63.99 0 0 1 623.829 102.93 L 623.829 74.609 A 59.074 59.074 0 0 1 624.206 67.731 Q 624.619 64.214 625.484 61.231 A 30.114 30.114 0 0 1 626.514 58.252 A 35.061 35.061 0 0 1 629.386 52.63 A 26.229 26.229 0 0 1 633.497 47.607 A 25.553 25.553 0 0 1 643.164 41.797 A 34.362 34.362 0 0 1 653.907 40.039 Q 658.524 40.039 662.004 41.403 A 16.46 16.46 0 0 1 662.256 41.504 Q 665.821 42.969 668.36 45.313 A 20.767 20.767 0 0 1 672.51 50.586 A 31.178 31.178 0 0 1 674.507 54.958 A 27.416 27.416 0 0 1 675 56.445 L 675 23.047 A 76.501 76.501 0 0 1 675.44 14.795 A 24.334 24.334 0 0 1 676.148 10.986 A 18.683 18.683 0 0 1 677.393 7.666 A 12.244 12.244 0 0 1 681.885 2.686 A 10.795 10.795 0 0 1 684.789 1.418 Q 686.13 1.04 687.729 0.886 A 24.207 24.207 0 0 1 690.039 0.781 A 20.386 20.386 0 0 1 693.166 1.006 Q 694.807 1.261 696.151 1.806 A 9.987 9.987 0 0 1 697.852 2.686 Q 700.782 4.59 702.295 7.666 A 19.105 19.105 0 0 1 703.714 11.663 A 25.013 25.013 0 0 1 704.248 14.795 A 76.501 76.501 0 0 1 704.688 23.047 Z M 1117.579 23.047 L 1117.579 115.43 Q 1117.579 119.531 1117.286 123.486 A 22.087 22.087 0 0 1 1116.593 127.646 A 17.932 17.932 0 0 1 1115.528 130.566 Q 1114.063 133.691 1111.133 135.596 A 10.365 10.365 0 0 1 1108.366 136.829 Q 1107.07 137.206 1105.512 137.372 A 24.522 24.522 0 0 1 1102.93 137.5 A 25.955 25.955 0 0 1 1099.802 137.324 Q 1098.208 137.129 1096.89 136.722 A 10.829 10.829 0 0 1 1094.532 135.693 A 14.213 14.213 0 0 1 1092.073 133.862 A 10.832 10.832 0 0 1 1090.039 131.299 Q 1088.575 128.711 1088.233 125.879 A 57.721 57.721 0 0 1 1088.025 123.878 Q 1087.945 122.95 1087.913 122.142 A 26.37 26.37 0 0 1 1087.891 121.094 A 29.391 29.391 0 0 1 1086.358 124.989 A 35.326 35.326 0 0 1 1085.401 126.855 A 20.767 20.767 0 0 1 1081.25 132.129 A 19.995 19.995 0 0 1 1077.071 135.069 A 24.127 24.127 0 0 1 1075.147 135.986 Q 1071.582 137.5 1066.797 137.5 A 34.362 34.362 0 0 1 1056.055 135.742 A 25.266 25.266 0 0 1 1046.387 129.883 Q 1042.09 125.781 1039.405 119.189 A 33.353 33.353 0 0 1 1037.569 112.833 Q 1036.985 109.763 1036.802 106.234 A 63.99 63.99 0 0 1 1036.719 102.93 L 1036.719 74.609 A 59.074 59.074 0 0 1 1037.097 67.731 Q 1037.51 64.214 1038.375 61.231 A 30.114 30.114 0 0 1 1039.405 58.252 A 35.061 35.061 0 0 1 1042.276 52.63 A 26.229 26.229 0 0 1 1046.387 47.607 A 25.553 25.553 0 0 1 1056.055 41.797 A 34.362 34.362 0 0 1 1066.797 40.039 Q 1071.414 40.039 1074.895 41.403 A 16.46 16.46 0 0 1 1075.147 41.504 Q 1078.711 42.969 1081.25 45.313 A 20.767 20.767 0 0 1 1085.401 50.586 A 31.178 31.178 0 0 1 1087.397 54.958 A 27.416 27.416 0 0 1 1087.891 56.445 L 1087.891 23.047 A 76.501 76.501 0 0 1 1088.33 14.795 A 24.334 24.334 0 0 1 1089.038 10.986 A 18.683 18.683 0 0 1 1090.284 7.666 A 12.244 12.244 0 0 1 1094.776 2.686 A 10.795 10.795 0 0 1 1097.68 1.418 Q 1099.021 1.04 1100.62 0.886 A 24.207 24.207 0 0 1 1102.93 0.781 A 20.386 20.386 0 0 1 1106.056 1.006 Q 1107.697 1.261 1109.042 1.806 A 9.987 9.987 0 0 1 1110.743 2.686 Q 1113.672 4.59 1115.186 7.666 A 19.105 19.105 0 0 1 1116.605 11.663 A 25.013 25.013 0 0 1 1117.139 14.795 A 76.501 76.501 0 0 1 1117.579 23.047 Z M 327.735 75.781 L 327.735 81.836 A 30.149 30.149 0 0 1 327.707 83.083 Q 327.679 83.772 327.62 84.543 A 55.949 55.949 0 0 1 327.539 85.498 A 8.093 8.093 0 0 1 326.446 88.842 A 9.854 9.854 0 0 1 326.026 89.502 A 8.142 8.142 0 0 1 324.457 91.169 Q 323.38 92.047 321.875 92.773 A 11.387 11.387 0 0 1 319.651 93.552 Q 317.416 94.103 314.295 94.138 A 38.091 38.091 0 0 1 313.868 94.141 L 275 94.141 L 275 103.516 A 20.75 20.75 0 0 0 275.303 106.986 A 24.482 24.482 0 0 0 275.586 108.398 A 14.284 14.284 0 0 0 277.588 113.086 A 11.13 11.13 0 0 0 281.275 116.559 A 12.845 12.845 0 0 0 281.348 116.602 Q 283.692 117.969 287.11 117.969 Q 291.016 117.969 293.116 117.041 A 11.683 11.683 0 0 0 294.785 116.145 Q 295.681 115.559 296.338 114.854 A 7.146 7.146 0 0 0 296.436 114.746 Q 297.657 113.379 298.633 111.816 A 11.818 11.818 0 0 1 300.188 109.85 A 14.661 14.661 0 0 1 301.221 108.887 A 9.511 9.511 0 0 1 302.74 107.848 Q 304.003 107.143 305.713 106.592 Q 308.466 105.705 313.224 105.666 A 53.998 53.998 0 0 1 313.672 105.664 A 28.183 28.183 0 0 1 318.409 106.055 A 12.294 12.294 0 0 1 320.914 106.747 A 10.266 10.266 0 0 1 322.461 107.52 A 8.006 8.006 0 0 1 325.208 110.351 A 9.431 9.431 0 0 1 325.293 110.498 Q 326.184 112.077 326.336 114.428 A 15.514 15.514 0 0 1 326.368 115.43 A 16.56 16.56 0 0 1 325.517 120.835 A 14.227 14.227 0 0 1 322.364 126.025 Q 318.36 130.273 312.305 132.813 Q 306.25 135.352 299.17 136.426 A 97.804 97.804 0 0 1 291.499 137.294 A 77.841 77.841 0 0 1 285.938 137.5 Q 277.832 137.402 270.508 135.449 A 37.421 37.421 0 0 1 260.295 131.085 A 34.504 34.504 0 0 1 257.569 129.199 A 29.766 29.766 0 0 1 249.612 119.867 A 35.507 35.507 0 0 1 248.633 117.969 A 31.821 31.821 0 0 1 246.196 110.519 Q 245.492 107.048 245.349 103.049 A 58.045 58.045 0 0 1 245.313 100.977 L 245.313 78.125 A 65.369 65.369 0 0 1 245.648 71.309 Q 246.008 67.886 246.753 64.96 A 33.703 33.703 0 0 1 247.51 62.402 A 40.605 40.605 0 0 1 249.86 56.832 A 29.681 29.681 0 0 1 253.223 51.66 A 28.488 28.488 0 0 1 257.961 47.033 A 24.56 24.56 0 0 1 261.133 44.971 A 40.18 40.18 0 0 1 268.304 41.9 A 36.261 36.261 0 0 1 270.02 41.406 A 51.385 51.385 0 0 1 275.332 40.304 A 42.085 42.085 0 0 1 278.565 39.941 A 132.827 132.827 0 0 1 281.446 39.763 Q 282.865 39.691 284.112 39.665 A 66.834 66.834 0 0 1 285.547 39.648 A 93.613 93.613 0 0 1 292.54 39.896 Q 298.029 40.308 302.393 41.406 Q 308.366 42.91 312.66 45.2 A 30.135 30.135 0 0 1 314.063 45.996 A 29.031 29.031 0 0 1 318.259 49.045 A 22.285 22.285 0 0 1 321.485 52.539 A 30.129 30.129 0 0 1 324.598 57.757 A 26.269 26.269 0 0 1 325.586 60.205 A 34.597 34.597 0 0 1 327.344 68.213 A 86.562 86.562 0 0 1 327.67 72.836 A 69.399 69.399 0 0 1 327.735 75.781 Z M 0 97.852 L 0 39.453 A 53.673 53.673 0 0 1 0.452 32.295 Q 1.111 27.4 2.735 23.486 A 39.051 39.051 0 0 1 6.04 17.145 A 30.865 30.865 0 0 1 9.717 12.5 A 33.92 33.92 0 0 1 16.891 6.796 A 31.147 31.147 0 0 1 19.092 5.615 A 58.968 58.968 0 0 1 25.309 3.006 A 48.447 48.447 0 0 1 29.053 1.855 A 60.473 60.473 0 0 1 33.105 0.932 Q 35.129 0.547 36.959 0.366 A 35.326 35.326 0 0 1 37.793 0.293 Q 41.629 0.005 43.487 0 A 24.183 24.183 0 0 1 43.555 0 L 46.875 0 Q 48.697 0 52.496 0.282 A 217.42 217.42 0 0 1 52.637 0.293 A 40.264 40.264 0 0 1 56.628 0.806 Q 58.582 1.151 60.715 1.696 A 66.767 66.767 0 0 1 61.329 1.855 A 50.933 50.933 0 0 1 67.443 3.919 A 63.063 63.063 0 0 1 71.241 5.615 Q 76.368 8.105 80.518 12.5 A 31.851 31.851 0 0 1 85.032 18.672 A 41.2 41.2 0 0 1 87.354 23.486 Q 90.039 30.078 90.039 39.453 L 90.039 97.852 A 58.052 58.052 0 0 1 89.613 105.091 Q 89.15 108.766 88.186 111.894 A 31.3 31.3 0 0 1 87.354 114.258 A 41.174 41.174 0 0 1 84.302 120.435 A 31.718 31.718 0 0 1 80.518 125.488 A 33.043 33.043 0 0 1 72.819 131.713 A 30.853 30.853 0 0 1 71.241 132.568 A 56.587 56.587 0 0 1 65.581 135.063 A 45.271 45.271 0 0 1 61.329 136.426 Q 56.964 137.584 53.331 137.929 A 34.893 34.893 0 0 1 52.637 137.988 Q 48.802 138.276 46.943 138.281 A 24.183 24.183 0 0 1 46.875 138.281 L 43.555 138.281 Q 41.733 138.281 37.934 137.999 A 217.42 217.42 0 0 1 37.793 137.988 A 40.528 40.528 0 0 1 33.927 137.499 Q 31.927 137.153 29.731 136.6 A 68.781 68.781 0 0 1 29.053 136.426 A 47.023 47.023 0 0 1 22.896 134.324 A 58.101 58.101 0 0 1 19.092 132.568 A 33.41 33.41 0 0 1 10.793 126.582 A 38.37 38.37 0 0 1 9.717 125.488 A 32.452 32.452 0 0 1 5.05 119.088 A 41.932 41.932 0 0 1 2.735 114.258 Q 0.369 108.428 0.05 100.404 A 64.299 64.299 0 0 1 0 97.852 Z M 940.821 62.109 L 940.821 115.43 Q 940.821 119.531 940.528 123.486 A 22.087 22.087 0 0 1 939.835 127.646 A 17.932 17.932 0 0 1 938.77 130.566 Q 937.305 133.691 934.375 135.596 A 10.365 10.365 0 0 1 931.608 136.829 Q 930.312 137.206 928.754 137.372 A 24.522 24.522 0 0 1 926.172 137.5 A 25.955 25.955 0 0 1 923.044 137.324 Q 921.45 137.129 920.132 136.722 A 10.829 10.829 0 0 1 917.774 135.693 A 14.213 14.213 0 0 1 915.315 133.862 A 10.832 10.832 0 0 1 913.282 131.299 Q 911.817 128.711 911.475 125.879 A 57.721 57.721 0 0 1 911.267 123.878 Q 911.187 122.95 911.155 122.142 A 26.37 26.37 0 0 1 911.133 121.094 A 29.391 29.391 0 0 1 909.6 124.989 A 35.326 35.326 0 0 1 908.643 126.855 A 20.767 20.767 0 0 1 904.493 132.129 A 19.995 19.995 0 0 1 900.313 135.069 A 24.127 24.127 0 0 1 898.389 135.986 Q 894.825 137.5 890.039 137.5 A 34.362 34.362 0 0 1 879.297 135.742 A 25.266 25.266 0 0 1 869.629 129.883 Q 865.332 125.781 862.647 119.189 A 33.353 33.353 0 0 1 860.811 112.833 Q 860.227 109.763 860.044 106.234 A 63.99 63.99 0 0 1 859.961 102.93 L 859.961 74.609 A 59.074 59.074 0 0 1 860.339 67.731 Q 860.752 64.214 861.617 61.231 A 30.114 30.114 0 0 1 862.647 58.252 A 35.061 35.061 0 0 1 865.519 52.63 A 26.229 26.229 0 0 1 869.629 47.607 A 25.553 25.553 0 0 1 879.297 41.797 A 34.362 34.362 0 0 1 890.039 40.039 Q 894.656 40.039 898.137 41.403 A 16.46 16.46 0 0 1 898.389 41.504 Q 901.954 42.969 904.493 45.313 A 20.767 20.767 0 0 1 908.643 50.586 A 31.178 31.178 0 0 1 910.64 54.958 A 27.416 27.416 0 0 1 911.133 56.445 Q 911.133 52.663 911.954 49.876 A 14.209 14.209 0 0 1 912.5 48.34 A 16.759 16.759 0 0 1 913.9 45.69 A 12.283 12.283 0 0 1 916.016 43.213 A 11.949 11.949 0 0 1 920.85 40.576 A 20.207 20.207 0 0 1 926.007 39.844 A 19.003 19.003 0 0 1 926.172 39.844 A 20.386 20.386 0 0 1 929.298 40.069 Q 930.939 40.324 932.284 40.868 A 9.987 9.987 0 0 1 933.985 41.748 Q 936.914 43.652 938.428 46.729 A 19.105 19.105 0 0 1 939.847 50.726 A 25.013 25.013 0 0 1 940.381 53.857 A 76.501 76.501 0 0 1 940.821 62.109 Z M 993.555 88.281 L 993.555 116.211 A 68.121 68.121 0 0 1 993.116 124.023 A 21.061 21.061 0 0 1 992.266 128.045 A 17.318 17.318 0 0 1 991.114 130.811 A 12.549 12.549 0 0 1 986.622 135.645 Q 984.312 137.107 980.728 137.417 A 23.451 23.451 0 0 1 978.711 137.5 Q 973.829 137.5 970.997 135.645 A 12.419 12.419 0 0 1 966.651 130.811 A 18.526 18.526 0 0 1 965.127 126.544 A 23.093 23.093 0 0 1 964.698 124.023 A 68.121 68.121 0 0 1 964.258 116.211 L 964.258 61.523 A 70.47 70.47 0 0 1 964.671 53.806 A 65.077 65.077 0 0 1 964.698 53.564 A 22.49 22.49 0 0 1 965.532 49.487 A 18.313 18.313 0 0 1 966.651 46.68 A 11.984 11.984 0 0 1 970.997 41.846 A 10.292 10.292 0 0 1 973.751 40.643 Q 975.054 40.275 976.611 40.131 A 22.879 22.879 0 0 1 978.711 40.039 A 18.199 18.199 0 0 1 981.6 40.254 Q 984.531 40.726 986.377 42.236 A 12.772 12.772 0 0 1 990.168 47.472 A 15.166 15.166 0 0 1 990.332 47.9 A 23.889 23.889 0 0 1 991.518 52.663 A 29.8 29.8 0 0 1 991.797 55.615 Q 991.993 59.863 991.993 63.867 L 993.555 63.867 A 50.867 50.867 0 0 1 995.607 57.432 A 42.284 42.284 0 0 1 997.168 53.955 A 40.555 40.555 0 0 1 999.537 49.854 A 30.407 30.407 0 0 1 1002.149 46.436 A 23.729 23.729 0 0 1 1005.164 43.567 A 18.875 18.875 0 0 1 1008.008 41.699 A 14.597 14.597 0 0 1 1011.329 40.404 A 12.084 12.084 0 0 1 1014.258 40.039 Q 1016.934 40.039 1018.911 40.449 A 12.416 12.416 0 0 1 1020.459 40.869 A 8.898 8.898 0 0 1 1022.566 41.911 A 7.252 7.252 0 0 1 1024.219 43.457 A 8.682 8.682 0 0 1 1025.452 45.672 Q 1025.828 46.645 1026.046 47.795 A 14.701 14.701 0 0 1 1026.075 47.949 A 28.386 28.386 0 0 1 1026.391 50.348 Q 1026.563 52.231 1026.563 54.492 Q 1026.563 62.109 1022.803 65.625 Q 1019.498 68.716 1013.739 69.089 A 25.181 25.181 0 0 1 1012.11 69.141 Q 1011.362 69.141 1010.128 69.226 A 70.377 70.377 0 0 0 1009.327 69.287 A 16.131 16.131 0 0 0 1007.217 69.606 A 20.839 20.839 0 0 0 1005.469 70.068 A 18.922 18.922 0 0 0 1002.691 71.186 A 22.884 22.884 0 0 0 1001.319 71.924 Q 999.219 73.145 997.461 75.244 A 13.894 13.894 0 0 0 995.787 77.792 Q 995.153 79.016 994.661 80.472 A 22.863 22.863 0 0 0 994.629 80.566 A 19.47 19.47 0 0 0 993.876 83.748 Q 993.635 85.305 993.575 87.077 A 35.45 35.45 0 0 0 993.555 88.281 Z M 32.422 37.891 L 32.422 101.563 A 17.023 17.023 0 0 0 32.935 104.956 A 13.421 13.421 0 0 0 34.082 107.91 A 11.997 11.997 0 0 0 36.184 110.771 A 15.658 15.658 0 0 0 37.94 112.305 A 8.651 8.651 0 0 0 40.597 113.631 Q 41.788 114.003 43.227 114.154 A 19.997 19.997 0 0 0 45.313 114.258 A 18.139 18.139 0 0 0 48.033 114.067 Q 49.456 113.851 50.61 113.389 A 8.049 8.049 0 0 0 52.539 112.305 A 15.138 15.138 0 0 0 54.761 110.229 A 11.974 11.974 0 0 0 56.348 107.91 Q 57.715 105.176 58.008 101.563 L 58.008 37.891 Q 57.715 34.375 56.348 31.543 A 12.57 12.57 0 0 0 54.518 29.014 A 16.994 16.994 0 0 0 52.539 27.197 A 8.423 8.423 0 0 0 49.811 25.798 Q 48.608 25.421 47.151 25.28 A 19.051 19.051 0 0 0 45.313 25.195 Q 42.121 25.195 39.907 26.086 A 8.186 8.186 0 0 0 37.94 27.197 A 16.805 16.805 0 0 0 35.865 29.082 A 12.216 12.216 0 0 0 34.082 31.543 A 14.999 14.999 0 0 0 32.568 36.385 A 17.983 17.983 0 0 0 32.422 37.891 Z M 653.907 76.758 L 653.907 100.391 A 67.473 67.473 0 0 0 654.102 105.566 A 15.695 15.695 0 0 0 654.556 108.339 A 12.888 12.888 0 0 0 655.176 110.156 A 7.843 7.843 0 0 0 656.777 112.584 A 7.393 7.393 0 0 0 657.764 113.428 Q 659.113 114.391 661.282 114.594 A 13.079 13.079 0 0 0 662.5 114.648 A 13.88 13.88 0 0 0 665.132 114.413 Q 666.681 114.114 667.914 113.435 A 7.958 7.958 0 0 0 668.702 112.939 A 9.284 9.284 0 0 0 670.947 110.611 Q 671.655 109.581 672.212 108.281 A 17.145 17.145 0 0 0 672.461 107.666 Q 673.52 104.906 674.081 101.033 A 52.61 52.61 0 0 0 674.366 98.682 A 112.89 112.89 0 0 0 674.707 94.321 Q 674.939 90.442 675 85.742 A 41.512 41.512 0 0 0 674.898 82.916 Q 674.798 81.467 674.604 79.854 A 74.185 74.185 0 0 0 674.463 78.76 A 32.826 32.826 0 0 0 672.727 71.73 A 30.591 30.591 0 0 0 672.559 71.289 A 17.867 17.867 0 0 0 670.302 67.137 A 15.851 15.851 0 0 0 668.75 65.332 A 8.245 8.245 0 0 0 663.435 62.929 A 11.13 11.13 0 0 0 662.5 62.891 Q 660.395 62.891 658.927 63.481 A 5.563 5.563 0 0 0 657.764 64.111 Q 656.055 65.332 655.176 67.285 A 12.189 12.189 0 0 0 654.345 69.936 A 15.525 15.525 0 0 0 654.102 71.729 A 64.298 64.298 0 0 0 653.907 76.758 Z M 1066.797 76.758 L 1066.797 100.391 A 67.473 67.473 0 0 0 1066.993 105.566 A 15.695 15.695 0 0 0 1067.447 108.339 A 12.888 12.888 0 0 0 1068.067 110.156 A 7.843 7.843 0 0 0 1069.668 112.584 A 7.393 7.393 0 0 0 1070.655 113.428 Q 1072.003 114.391 1074.173 114.594 A 13.079 13.079 0 0 0 1075.391 114.648 A 13.88 13.88 0 0 0 1078.023 114.413 Q 1079.571 114.114 1080.805 113.435 A 7.958 7.958 0 0 0 1081.592 112.939 A 9.284 9.284 0 0 0 1083.838 110.611 Q 1084.545 109.581 1085.103 108.281 A 17.145 17.145 0 0 0 1085.352 107.666 Q 1086.411 104.906 1086.972 101.033 A 52.61 52.61 0 0 0 1087.256 98.682 A 112.89 112.89 0 0 0 1087.597 94.321 Q 1087.83 90.442 1087.891 85.742 A 41.512 41.512 0 0 0 1087.788 82.916 Q 1087.689 81.467 1087.494 79.854 A 74.185 74.185 0 0 0 1087.354 78.76 A 32.826 32.826 0 0 0 1085.617 71.73 A 30.591 30.591 0 0 0 1085.45 71.289 A 17.867 17.867 0 0 0 1083.193 67.137 A 15.851 15.851 0 0 0 1081.641 65.332 A 8.245 8.245 0 0 0 1076.325 62.929 A 11.13 11.13 0 0 0 1075.391 62.891 Q 1073.285 62.891 1071.817 63.481 A 5.563 5.563 0 0 0 1070.655 64.111 Q 1068.946 65.332 1068.067 67.285 A 12.189 12.189 0 0 0 1067.235 69.936 A 15.525 15.525 0 0 0 1066.993 71.729 A 64.298 64.298 0 0 0 1066.797 76.758 Z M 890.039 76.758 L 890.039 100.391 A 67.473 67.473 0 0 0 890.235 105.566 A 15.695 15.695 0 0 0 890.689 108.339 A 12.888 12.888 0 0 0 891.309 110.156 A 7.843 7.843 0 0 0 892.91 112.584 A 7.393 7.393 0 0 0 893.897 113.428 Q 895.245 114.391 897.415 114.594 A 13.079 13.079 0 0 0 898.633 114.648 A 13.88 13.88 0 0 0 901.265 114.413 Q 902.813 114.114 904.047 113.435 A 7.958 7.958 0 0 0 904.834 112.939 A 9.284 9.284 0 0 0 907.08 110.611 Q 907.787 109.581 908.345 108.281 A 17.145 17.145 0 0 0 908.594 107.666 Q 909.653 104.906 910.214 101.033 A 52.61 52.61 0 0 0 910.498 98.682 A 112.89 112.89 0 0 0 910.839 94.321 Q 911.072 90.442 911.133 85.742 A 41.512 41.512 0 0 0 911.03 82.916 Q 910.931 81.467 910.737 79.854 A 74.185 74.185 0 0 0 910.596 78.76 A 32.826 32.826 0 0 0 908.859 71.73 A 30.591 30.591 0 0 0 908.692 71.289 A 17.867 17.867 0 0 0 906.435 67.137 A 15.851 15.851 0 0 0 904.883 65.332 A 8.245 8.245 0 0 0 899.568 62.929 A 11.13 11.13 0 0 0 898.633 62.891 Q 896.528 62.891 895.06 63.481 A 5.563 5.563 0 0 0 893.897 64.111 Q 892.188 65.332 891.309 67.285 A 12.189 12.189 0 0 0 890.477 69.936 A 15.525 15.525 0 0 0 890.235 71.729 A 64.298 64.298 0 0 0 890.039 76.758 Z M 275 72.656 L 275 79.492 L 299.414 79.492 A 148.435 148.435 0 0 0 299.368 75.672 Q 299.323 73.925 299.234 72.361 A 86.329 86.329 0 0 0 299.17 71.338 Q 298.96 68.269 298.026 66.033 A 11.332 11.332 0 0 0 297.705 65.332 A 8.084 8.084 0 0 0 293.997 61.671 A 9.971 9.971 0 0 0 293.897 61.621 A 10.263 10.263 0 0 0 291.858 60.898 Q 289.806 60.387 286.925 60.354 A 35.034 35.034 0 0 0 286.524 60.352 A 20.611 20.611 0 0 0 284.188 60.476 Q 281.803 60.748 280.225 61.621 A 10.58 10.58 0 0 0 278.32 62.951 A 8.209 8.209 0 0 0 276.758 64.795 Q 275.586 66.699 275.293 68.848 Q 275 70.996 275 72.656 Z" vector-effect="non-scaling-stroke"/></g></svg>